PathFileType	4	(X/Y/Z)	C:/Users/opensim2020/Desktop/walking_exp_matlab/subject03_walking16_run.trc																																																																																																																																																	
DataRate	CameraRate	NumFrames	NumMarkers	Units	OrigDataRate	OrigDataStartFrame	OrigNumFrames																																																																																																																																													
100	100	4	49	mm	100	207	131																																																																																																																																													
Frame#	Time	RKNE			RTOE			RWRB			LTHI			RELB			RFRM			RUPA			RASI			LTIB			RWRA			RTHI			LSHO			LTOE			RTIB			LWRA			CLAV			LASI			RSHO			RFHD			STRN			LHEE			RFIN			RBHD			LFRM			C7			LWRB			LFIN			LUPA			LBHD			LELB			RANK			RHEE			RBAK			LPSI			T10			LFHD			RPSI			LKNE			LANK			*39			*40			*41			*42			*43			*44			*45			*46			*47			*48		
		X1	Y1	Z1	X2	Y2	Z2	X3	Y3	Z3	X4	Y4	Z4	X5	Y5	Z5	X6	Y6	Z6	X7	Y7	Z7	X8	Y8	Z8	X9	Y9	Z9	X10	Y10	Z10	X11	Y11	Z11	X12	Y12	Z12	X13	Y13	Z13	X14	Y14	Z14	X15	Y15	Z15	X16	Y16	Z16	X17	Y17	Z17	X18	Y18	Z18	X19	Y19	Z19	X20	Y20	Z20	X21	Y21	Z21	X22	Y22	Z22	X23	Y23	Z23	X24	Y24	Z24	X25	Y25	Z25	X26	Y26	Z26	X27	Y27	Z27	X28	Y28	Z28	X29	Y29	Z29	X30	Y30	Z30	X31	Y31	Z31	X32	Y32	Z32	X33	Y33	Z33	X34	Y34	Z34	X35	Y35	Z35	X36	Y36	Z36	X37	Y37	Z37	X38	Y38	Z38	X39	Y39	Z39	X40	Y40	Z40	X41	Y41	Z41	X42	Y42	Z42	X43	Y43	Z43	X44	Y44	Z44	X45	Y45	Z45	X46	Y46	Z46	X47	Y47	Z47	X48	Y48	Z48	X49	Y49	Z49
																																																																																																																																																				
17	0.16	-1323.97437	467.65845	336.24884	-1677.98389	87.34452	261.05103	-959.79419	1092.02966	353.00864	-1087.7865	648.91937	63.45732	-1138.05823	1102.89832	482.74829	-1040.1123	1099.75208	411.58789	-1154.83496	1189.90637	467.52972	-1112.49512	914.28491	340.76456	-1004.29211	296.54388	115.72141	-982.51111	1138.56787	338.81454	-1261.88586	638.7757	376.26593	-1158.80359	1391.24976	71.82536	-810.67584	64.01979	199.68066	-1488.99524	357.08038	344.2847	-1247.72485	996.17285	-10.19423	-1089.87573	1336.33716	205.21339	-1117.09558	932.08472	114.99883	-1133.92578	1385.36108	357.92374	-1117.61511	1622.17004	284.40005	-1053.38733	1167.74963	199.81828	-999.0249	61.01617	211.15448	-905.55597	1126.83044	317.05026	-1224.42297	1548.92188	270.57645	-1283.05115	1098.82544	-75.08899	-1216.78052	1408.15967	209.95192	-1245.43811	987.04285	-67.67419	-1264.20715	899.69232	-31.60828	-1267.92627	1292.36926	-54.40616	-1210.02051	1547.06555	140.91423	-1330.11401	1203.76746	-102.4081	-1665.1051	232.73868	305.89551	-1700.61377	269.02509	258.6644	-1255.46667	1247.66553	321.82098	-1272.47668	971.51074	159.20444	-1262.00195	1107.29053	234.90724	-1098.20459	1620.91992	152.53912	-1259.82056	979.81561	310.96774	-1006.22913	493.48828	104.28257	-966.82288	90.07258	167.17238	NaN	NaN	NaN	NaN	NaN	NaN	NaN	NaN	NaN	NaN	NaN	NaN	NaN	NaN	NaN	NaN	NaN	NaN	NaN	NaN	NaN	-1198.60449	1657.73633	192.26727	NaN	NaN	NaN	NaN	NaN	NaN
18	0.17	-1279.24084	460.95862	336.90085	-1649.76306	99.55405	267.06702	-932.30597	1079.24902	354.94385	-1062.5741	642.4137	61.84314	-1109.79822	1100.48767	485.63882	-1011.85382	1091.88147	414.14828	-1126.18311	1189.12024	469.62006	-1080.96387	914.34259	341.01157	-978.51099	294.70959	119.7989	-952.95105	1126.20508	339.70547	-1221.74292	633.95502	375.6853	-1126.44312	1387.86987	70.26193	-788.74506	58.46545	202.26805	-1451.25647	359.71371	346.37415	-1206.82312	989.56256	-9.9997	-1058.22278	1334.93323	205.19122	-1087.56616	929.1676	115.40437	-1102.427	1383.82703	358.72366	-1088.16321	1621.36975	284.38202	-1022.34766	1166.02893	201.08563	-976.45538	59.98049	217.52515	-876.01221	1110.29468	318.64246	-1194.30786	1547.32495	269.80463	-1243.76868	1090.86536	-76.06101	-1185.23547	1406.22742	208.63512	-1205.50659	979.62653	-66.90564	-1222.65466	892.57532	-29.8231	-1232.55615	1284.94397	-56.1871	-1178.93982	1545.65283	140.23961	-1292.54077	1195.06348	-104.31747	-1634.08887	245.71399	307.98914	-1668.58459	281.74307	259.10974	-1224.42932	1245.90295	321.37701	-1242.18591	969.27246	159.99529	-1231.08801	1105.30823	234.99216	-1067.83777	1620.29272	152.75044	-1229.3363	978.99066	311.79962	-978.04541	491.15714	106.02879	-944.82251	88.06787	172.65723	NaN	NaN	NaN	NaN	NaN	NaN	NaN	NaN	NaN	NaN	NaN	NaN	NaN	NaN	NaN	NaN	NaN	NaN	NaN	NaN	NaN	-1169.5752	1656.46155	191.84251	NaN	NaN	NaN	NaN	NaN	NaN
19	0.18	-1232.7915	453.8822	337.95462	-1619.23792	112.03644	273.39633	-905.30054	1063.5802	358.55441	-1036.96472	636.99628	61.78974	-1082.73572	1096.99829	488.09705	-984.1684	1081.70483	416.79605	-1098.13672	1187.24792	471.30157	-1049.91211	914.00098	341.5108	-955.49603	292.01938	123.24036	-922.98029	1111.28528	341.93576	-1181.2395	628.89044	375.5704	-1094.05457	1383.5968	68.73299	-774.21259	50.22011	205.88712	-1409.51074	361.04004	347.55542	-1164.55579	980.4826	-9.33761	-1026.56396	1332.58154	205.34711	-1058.32324	926.04376	115.72639	-1070.59167	1381.21301	359.5195	-1058.76208	1619.74255	284.31805	-991.53711	1163.16492	202.23863	-961.40729	57.60336	223.00912	-847.29816	1090.25085	321.39987	-1164.0907	1544.83105	268.97821	-1202.78345	1080.2876	-76.33377	-1153.45288	1403.65637	207.56384	-1163.25317	969.90765	-65.96677	-1178.24158	883.06372	-27.80779	-1196.09912	1275.60071	-58.11489	-1147.7998	1543.23083	139.53661	-1252.63831	1183.56335	-105.35471	-1598.75391	257.75415	311.45306	-1632.05701	294.47675	261.53555	-1193.08765	1243.63892	320.88943	-1212.27405	965.87427	161.05544	-1200.81543	1102.56726	235.08585	-1037.36926	1619.15308	152.76071	-1199.92798	976.65778	312.90619	-948.22858	489.85287	107.45947	-929.39819	84.79155	178.15437	NaN	NaN	NaN	NaN	NaN	NaN	NaN	NaN	NaN	NaN	NaN	NaN	NaN	NaN	NaN	NaN	NaN	NaN	NaN	NaN	NaN	-1139.60938	1653.99866	190.82671	NaN	NaN	NaN	NaN	NaN	NaN
20	0.19	-1184.83862	446.10721	339.22543	-1585.37134	124.29103	280.08728	-879.89252	1045.30139	362.703	-1009.47693	633.84613	63.18503	-1056.73755	1092.76721	490.04019	-957.93237	1069.0249	419.85608	-1070.70471	1184.55298	472.78061	-1019.26892	913.0365	342.32791	-935.1308	288.17987	126.56481	-894.0177	1093.276	344.58337	-1140.60071	623.52643	376.2648	-1061.49854	1378.38916	67.05164	-765.48779	40.70678	211.57404	-1364.15222	360.94977	348.59601	-1121.0885	969.0918	-8.27081	-994.74817	1329.12231	205.48044	-1029.10315	922.99542	116.06675	-1038.50134	1377.50061	359.98526	-1029.28345	1617.09741	284.21591	-960.81982	1159.36926	203.37077	-952.39844	54.50059	227.84737	-819.62036	1066.81848	325.5864	-1133.85388	1541.19543	268.19977	-1160.25757	1067.69592	-76.37278	-1121.43042	1400.53613	206.73137	-1119.30872	958.16681	-64.64225	-1131.53064	871.36993	-25.76245	-1158.72351	1264.34802	-59.52283	-1116.56836	1539.67322	138.85263	-1211.55981	1169.95386	-106.33066	-1559.14612	268.87949	315.71884	-1591.67554	306.80054	265.35361	-1162.33521	1241.37268	320.51297	-1182.96033	961.54865	162.77185	-1170.83691	1099.22632	235.15926	-1007.04608	1616.52356	152.63945	-1170.81738	972.71716	314.20883	-918.59137	487.75046	108.70559	-919.08917	80.29393	183.03613	NaN	NaN	NaN	NaN	NaN	NaN	NaN	NaN	NaN	NaN	NaN	NaN	NaN	NaN	NaN	NaN	NaN	NaN	NaN	NaN	NaN	-1109.83301	1650.45752	190.13359	NaN	NaN	NaN	NaN	NaN	NaN
